<svg id="Layer_1" data-name="Layer 1" xmlns="http://www.w3.org/2000/svg" viewBox="0 0 160 200"><defs><style>.cls-1{fill:#f39722;}</style></defs><path class="cls-1" d="M120.59,41V19.71L100.59,0H60L39.41,19.71V41H0V200H160V41ZM59.41,19.88h41.18V41H59.41Z"/><path d="M43.09,131.53C58,119.24,73.81,107.05,73.81,95.24c0-5.08-2.31-8.35-7.3-8.35s-7.77,3.84-7.77,10.47H42.9c.48-17,11.52-24.29,24.28-24.29,15.94,0,23,9.31,23,21.12,0,15.36-13.73,27.64-24.86,36.19H91.28v13.34H43.09Z"/><path d="M140.62,74.51v14.4H110.67v13.24c2.5-2.78,7.3-4.79,12.86-4.79,15.27,0,21.12,11.61,21.12,22.94,0,14.78-8.64,24.38-24.19,24.38-15.74,0-24.86-8.74-25.44-20.83h16c.68,3.65,3.46,6.91,8.84,6.91,6.23,0,8.92-4.51,8.92-10.56,0-6.33-3.16-9.69-9-9.69-4.61,0-7.3,2.49-8.16,5.76H95.79V74.51Z"/><path d="M25,77c7.73,0,11.48,4.8,11.72,10.9H29.13c-.1-2.4-1.2-4.18-4-4.18-2.5,0-4,1.49-4,4.66a19,19,0,0,0,1.06,5.18h8.69v5.52H23.37v.15a10.12,10.12,0,0,1-3.17,7.39H36.86v6.43H12.38l-1.16-4a11.75,11.75,0,0,0,4.37-9.84v-.1H10.36V93.59h3.89a21.82,21.82,0,0,1-.91-6C13.34,80.92,18.14,77,25,77Z"/></svg>